<?xml version="1.0" encoding="utf-8"?>
<!-- Generator: Adobe Illustrator 22.0.0, SVG Export Plug-In . SVG Version: 6.00 Build 0)  -->
<svg version="1.1" id="Capa_1" xmlns="http://www.w3.org/2000/svg" xmlns:xlink="http://www.w3.org/1999/xlink" x="0px" y="0px"
	 viewBox="0 0 89.9 24.2" style="enable-background:new 0 0 89.9 24.2;" xml:space="preserve">
<style type="text/css">
	.st0{fill:#FFFFFF;}
</style>
<path class="st0" d="M3.5,15c0.1,0.6,0.3,1,0.7,1.3c0.4,0.3,0.8,0.4,1.4,0.4c0.6,0,1.1-0.2,1.5-0.6c0.4-0.4,0.6-0.9,0.6-1.6
	c0-0.6-0.2-1.2-0.6-1.6s-0.9-0.6-1.5-0.6c-0.4,0-0.7,0.1-1,0.2c-0.3,0.1-0.6,0.4-0.8,0.7L3,13.2l0.7-4.4h4.2v0.6H4.4l-0.5,2.8
	c0.3-0.2,0.6-0.4,0.9-0.4s0.6-0.1,1-0.1c0.8,0,1.4,0.3,1.9,0.8c0.5,0.5,0.7,1.2,0.7,2c0,0.8-0.3,1.5-0.8,2c-0.5,0.5-1.2,0.8-1.9,0.8
	c-0.9,0-1.6-0.2-2.2-0.6c-0.5-0.4-0.8-1-0.8-1.8H3.5z"/>
<path class="st0" d="M12.8,15.1H8.9l0-0.6l3.9-5.6h0.7v5.6h1.2v0.6h-1.2v2.1h-0.8V15.1z M9.7,14.4h3.1V9.9L9.7,14.4z"/>
<path class="st0" d="M19.2,13.7v0.7h-3v-0.7H19.2z"/>
<path class="st0" d="M21.8,10.9h-2.2v-0.5c0.7,0,1.3-0.1,1.6-0.3c0.4-0.2,0.6-0.7,0.7-1.3h0.6v8.5h-0.8V10.9z"/>
<path class="st0" d="M27,10.9h-2.2v-0.5c0.7,0,1.3-0.1,1.6-0.3c0.4-0.2,0.6-0.7,0.7-1.3h0.6v8.5H27V10.9z"/>
<path class="st0" d="M32.1,13.7v0.7h-3v-0.7H32.1z"/>
<path class="st0" d="M37.4,15.1h-3.9l0-0.6l3.9-5.6h0.7v5.6h1.2v0.6h-1.2v2.1h-0.8V15.1z M34.3,14.4h3.1V9.9L34.3,14.4z"/>
<path class="st0" d="M43.6,15.1h-3.9l0-0.6l3.9-5.6h0.7v5.6h1.2v0.6h-1.2v2.1h-0.8V15.1z M40.5,14.4h3.1V9.9L40.5,14.4z"/>
<path class="st0" d="M48.1,12.5c0.8,0,1.4-0.1,1.8-0.4c0.4-0.2,0.6-0.7,0.6-1.3c0-0.5-0.2-0.9-0.5-1.1c-0.3-0.2-0.8-0.4-1.3-0.4
	c-0.5,0-1,0.2-1.3,0.5s-0.5,0.8-0.5,1.3h-0.8c0-0.4,0.1-0.7,0.2-1c0.1-0.3,0.3-0.6,0.6-0.8s0.6-0.4,0.9-0.5c0.3-0.1,0.7-0.1,1.1-0.1
	c0.7,0,1.3,0.2,1.7,0.5s0.7,0.9,0.7,1.6c0,0.9-0.4,1.5-1.2,1.9c0.6,0.2,1,0.5,1.2,0.8c0.2,0.4,0.3,0.8,0.3,1.3
	c0,0.7-0.2,1.3-0.7,1.8c-0.5,0.5-1.2,0.7-2,0.7c-1,0-1.7-0.2-2.2-0.6c-0.5-0.4-0.7-1.1-0.8-2h0.8c0,0.6,0.2,1.1,0.6,1.5
	c0.4,0.3,0.9,0.5,1.5,0.5c0.6,0,1.1-0.2,1.5-0.6c0.4-0.4,0.6-0.8,0.6-1.3c0-0.6-0.2-1.1-0.7-1.3c-0.5-0.2-1.2-0.4-2-0.4V12.5z"/>
<path class="st0" d="M52.5,10.8c0-0.6,0.2-1.1,0.7-1.5c0.5-0.4,1-0.6,1.7-0.6c0.7,0,1.3,0.2,1.8,0.5c0.5,0.3,0.7,0.9,0.7,1.5
	c0,0.5-0.1,0.8-0.3,1.1c-0.2,0.3-0.5,0.6-0.9,0.8c0.5,0.2,0.8,0.4,1.1,0.8c0.3,0.4,0.4,0.8,0.4,1.3c0,0.8-0.3,1.5-0.8,1.9
	c-0.5,0.4-1.3,0.7-2.2,0.7c-0.7,0-1.3-0.2-1.8-0.7c-0.5-0.4-0.8-1.1-0.8-1.8c0-0.5,0.1-1,0.4-1.4s0.6-0.7,1.1-0.9
	c-0.4-0.3-0.8-0.5-0.9-0.8C52.6,11.6,52.5,11.2,52.5,10.8z M53,14.8c0,0.5,0.2,1,0.6,1.3c0.4,0.3,0.9,0.5,1.5,0.5
	c0.6,0,1-0.2,1.4-0.5c0.4-0.4,0.6-0.8,0.6-1.4c0-0.6-0.2-1-0.6-1.3C56.1,13.2,55.6,13,55,13c-0.6,0-1.1,0.2-1.5,0.5
	C53.1,13.8,53,14.2,53,14.8z M53.3,10.9c0,0.5,0.2,0.9,0.5,1.1c0.3,0.3,0.8,0.4,1.3,0.4c0.5,0,0.9-0.1,1.2-0.4s0.4-0.7,0.4-1.3
	c0-0.4-0.1-0.8-0.4-1C56,9.5,55.5,9.3,55,9.3c-0.5,0-0.9,0.1-1.2,0.4S53.3,10.4,53.3,10.9z"/>
<path class="st0" d="M62.4,13.7v0.7h-3v-0.7H62.4z"/>
<path class="st0" d="M64.2,10.8c0-0.6,0.2-1.1,0.7-1.5c0.5-0.4,1-0.6,1.7-0.6c0.7,0,1.3,0.2,1.8,0.5c0.5,0.3,0.7,0.9,0.7,1.5
	c0,0.5-0.1,0.8-0.3,1.1c-0.2,0.3-0.5,0.6-0.9,0.8c0.5,0.2,0.8,0.4,1.1,0.8c0.3,0.4,0.4,0.8,0.4,1.3c0,0.8-0.3,1.5-0.8,1.9
	c-0.5,0.4-1.3,0.7-2.2,0.7c-0.7,0-1.3-0.2-1.8-0.7c-0.5-0.4-0.8-1.1-0.8-1.8c0-0.5,0.1-1,0.4-1.4s0.6-0.7,1.1-0.9
	c-0.4-0.3-0.8-0.5-0.9-0.8C64.3,11.6,64.2,11.2,64.2,10.8z M64.7,14.8c0,0.5,0.2,1,0.6,1.3c0.4,0.3,0.9,0.5,1.5,0.5
	c0.6,0,1-0.2,1.4-0.5c0.4-0.4,0.6-0.8,0.6-1.4c0-0.6-0.2-1-0.6-1.3c-0.4-0.3-0.9-0.5-1.5-0.5c-0.6,0-1.1,0.2-1.5,0.5
	C64.9,13.8,64.7,14.2,64.7,14.8z M65,10.9c0,0.5,0.2,0.9,0.5,1.1c0.3,0.3,0.8,0.4,1.3,0.4c0.5,0,0.9-0.1,1.2-0.4s0.4-0.7,0.4-1.3
	c0-0.4-0.1-0.8-0.4-1c-0.3-0.2-0.7-0.4-1.3-0.4c-0.5,0-0.9,0.1-1.2,0.4S65,10.4,65,10.9z"/>
<path class="st0" d="M73.9,15.1H70l0-0.6l3.9-5.6h0.7v5.6h1.2v0.6h-1.2v2.1h-0.8V15.1z M70.8,14.4h3.1V9.9L70.8,14.4z"/>
<path class="st0" d="M76.6,10.8c0-0.6,0.2-1.1,0.7-1.5c0.5-0.4,1-0.6,1.7-0.6c0.7,0,1.3,0.2,1.8,0.5c0.5,0.3,0.7,0.9,0.7,1.5
	c0,0.5-0.1,0.8-0.3,1.1c-0.2,0.3-0.5,0.6-0.9,0.8c0.5,0.2,0.8,0.4,1.1,0.8c0.3,0.4,0.4,0.8,0.4,1.3c0,0.8-0.3,1.5-0.8,1.9
	c-0.5,0.4-1.3,0.7-2.2,0.7c-0.7,0-1.3-0.2-1.8-0.7c-0.5-0.4-0.8-1.1-0.8-1.8c0-0.5,0.1-1,0.4-1.4s0.6-0.7,1.1-0.9
	c-0.4-0.3-0.8-0.5-0.9-0.8C76.7,11.6,76.6,11.2,76.6,10.8z M77,14.8c0,0.5,0.2,1,0.6,1.3c0.4,0.3,0.9,0.5,1.5,0.5
	c0.6,0,1-0.2,1.4-0.5c0.4-0.4,0.6-0.8,0.6-1.4c0-0.6-0.2-1-0.6-1.3c-0.4-0.3-0.9-0.5-1.5-0.5c-0.6,0-1.1,0.2-1.5,0.5
	C77.2,13.8,77,14.2,77,14.8z M77.3,10.9c0,0.5,0.2,0.9,0.5,1.1c0.3,0.3,0.8,0.4,1.3,0.4c0.5,0,0.9-0.1,1.2-0.4s0.4-0.7,0.4-1.3
	c0-0.4-0.1-0.8-0.4-1c-0.3-0.2-0.7-0.4-1.3-0.4c-0.5,0-0.9,0.1-1.2,0.4S77.3,10.4,77.3,10.9z"/>
<path class="st0" d="M84.6,12.5c0.8,0,1.4-0.1,1.8-0.4c0.4-0.2,0.6-0.7,0.6-1.3c0-0.5-0.2-0.9-0.5-1.1c-0.3-0.2-0.8-0.4-1.3-0.4
	c-0.5,0-1,0.2-1.3,0.5s-0.5,0.8-0.5,1.3h-0.8c0-0.4,0.1-0.7,0.2-1c0.1-0.3,0.3-0.6,0.6-0.8s0.6-0.4,0.9-0.5c0.3-0.1,0.7-0.1,1.1-0.1
	c0.7,0,1.3,0.2,1.7,0.5s0.7,0.9,0.7,1.6c0,0.9-0.4,1.5-1.2,1.9c0.6,0.2,1,0.5,1.2,0.8c0.2,0.4,0.3,0.8,0.3,1.3
	c0,0.7-0.2,1.3-0.7,1.8c-0.5,0.5-1.2,0.7-2,0.7c-1,0-1.7-0.2-2.2-0.6c-0.5-0.4-0.7-1.1-0.8-2h0.8c0,0.6,0.2,1.1,0.6,1.5
	c0.4,0.3,0.9,0.5,1.5,0.5c0.6,0,1.1-0.2,1.5-0.6c0.4-0.4,0.6-0.8,0.6-1.3c0-0.6-0.2-1.1-0.7-1.3c-0.5-0.2-1.2-0.4-2-0.4V12.5z"/>
</svg>
