<?xml version="1.0" encoding="utf-8"?>
<!-- Generator: Adobe Illustrator 24.0.0, SVG Export Plug-In . SVG Version: 6.00 Build 0)  -->
<svg version="1.1" xmlns="http://www.w3.org/2000/svg" xmlns:xlink="http://www.w3.org/1999/xlink" x="0px" y="0px"
	 viewBox="0 0 136.1 36.7" style="enable-background:new 0 0 136.1 36.7;" xml:space="preserve">
<style type="text/css">
	.st0{display:none;}
	.st1{display:inline;}
	.st2{fill:#FEFEFE;}
	.st3{fill:#FFFFFF;}
	.st4{font-family:'OpenSans-Light';}
	.st5{font-size:30px;}
</style>
<g id="Capa_1" class="st0">
	<g class="st1">
		<g>
			<path class="st2" d="M51.2,16.4c-0.1-0.6-0.2-1.2-0.5-1.6c-0.3-0.5-0.6-0.9-1-1.2s-0.9-0.5-1.4-0.7c-0.6-0.2-1.1-0.2-1.8-0.2
				c-0.9,0-1.6,0.2-2.3,0.5c-0.7,0.4-1.2,0.8-1.7,1.4c-0.5,0.6-0.8,1.3-1,2c-0.2,0.7-0.4,1.5-0.4,2.3c0,0.9,0.1,1.8,0.3,2.6
				c0.2,0.8,0.6,1.5,1,2.1c0.5,0.6,1,1,1.7,1.4c0.7,0.3,1.5,0.5,2.4,0.5c0.7,0,1.3-0.1,1.8-0.3c0.6-0.2,1-0.5,1.5-0.9
				c0.4-0.4,0.8-0.8,1-1.4c0.3-0.5,0.5-1.1,0.5-1.7h1c-0.1,0.8-0.3,1.6-0.7,2.2c-0.4,0.7-0.8,1.2-1.3,1.6s-1.1,0.8-1.8,1
				s-1.4,0.4-2.1,0.4c-1.1,0-2.1-0.2-2.9-0.6c-0.8-0.4-1.5-1-2-1.6c-0.5-0.7-0.9-1.5-1.1-2.4C40.2,20.9,40,20,40,19s0.1-1.9,0.4-2.8
				c0.3-0.9,0.7-1.6,1.2-2.3s1.2-1.2,2-1.5c0.8-0.4,1.7-0.6,2.7-0.6c0.8,0,1.5,0.1,2.1,0.3c0.7,0.2,1.2,0.5,1.8,0.9s0.9,0.9,1.3,1.4
				c0.3,0.6,0.5,1.3,0.6,2.1h-0.9V16.4z"/>
			<path class="st2" d="M55.8,15.1L55.8,15.1c0.2-0.5,0.4-0.9,0.8-1.3c0.3-0.4,0.7-0.7,1.2-1s1-0.5,1.6-0.7C60,12,60.6,12,61.2,12v1
				c-0.5-0.1-1.2,0-1.9,0.2s-1.4,0.6-2,1.2c-0.3,0.3-0.5,0.5-0.7,0.8s-0.3,0.5-0.5,0.8c-0.1,0.3-0.2,0.7-0.3,1
				c-0.1,0.4-0.1,0.8-0.1,1.4V26h-1V12.1h1L55.8,15.1L55.8,15.1z"/>
			<path class="st2" d="M62.7,19.2c0,0.8,0.1,1.6,0.3,2.4s0.5,1.4,1,2c0.4,0.6,1,1,1.6,1.4s1.4,0.5,2.3,0.5c1.3,0,2.4-0.4,3.3-1.1
				s1.4-1.7,1.7-3h1c-0.3,1.6-0.9,2.9-2,3.8c-1,0.9-2.4,1.3-4.1,1.3c-1,0-1.9-0.2-2.7-0.6c-0.8-0.4-1.4-0.9-1.9-1.5S62.3,23,62,22.2
				c-0.3-0.9-0.4-1.8-0.4-2.7c0-1,0.1-1.9,0.3-2.8c0.2-0.9,0.6-1.7,1.1-2.4s1.2-1.3,1.9-1.7c0.8-0.4,1.7-0.6,2.7-0.6
				c1.1,0,2,0.2,2.8,0.6c0.8,0.4,1.4,0.9,2,1.6c0.5,0.7,0.9,1.5,1.1,2.4s0.3,1.9,0.3,2.8H62.7V19.2z M72.9,18.3
				c0-0.7-0.1-1.4-0.4-2.1c-0.2-0.7-0.6-1.3-1-1.8s-1-0.9-1.6-1.2s-1.3-0.5-2.1-0.5c-0.8,0-1.5,0.2-2.1,0.5s-1.1,0.8-1.6,1.3
				c-0.4,0.5-0.8,1.1-1,1.8c-0.3,0.7-0.4,1.4-0.5,2H72.9z"/>
			<path class="st2" d="M86.6,23.4c0,0.2,0,0.4,0,0.6s0,0.4,0.1,0.5s0.1,0.3,0.3,0.4c0.1,0.1,0.3,0.1,0.5,0.1s0.4,0,0.8-0.1v0.9
				c-0.1,0-0.3,0.1-0.4,0.1s-0.3,0-0.4,0c-0.4,0-0.7-0.1-1-0.2c-0.2-0.1-0.4-0.3-0.6-0.4c-0.1-0.2-0.2-0.4-0.3-0.6
				c0-0.2-0.1-0.5-0.1-0.8v-0.7h-0.1c-0.2,0.4-0.4,0.8-0.7,1.2c-0.3,0.4-0.7,0.7-1.1,1s-0.9,0.5-1.5,0.7s-1.2,0.2-1.8,0.2
				c-0.7,0-1.3-0.1-1.8-0.2c-0.6-0.1-1.1-0.4-1.5-0.7c-0.4-0.3-0.8-0.7-1-1.2s-0.4-1.1-0.4-1.9s0.2-1.5,0.5-2s0.7-0.9,1.2-1.2
				c0.5-0.3,1-0.5,1.7-0.6c0.6-0.1,1.2-0.2,1.8-0.3c1.2-0.1,2.1-0.2,2.7-0.3c0.6-0.1,1.1-0.3,1.4-0.5s0.5-0.5,0.6-0.8
				s0.1-0.8,0.1-1.4c0-0.3-0.1-0.6-0.2-0.9c-0.1-0.3-0.3-0.6-0.6-0.9c-0.3-0.3-0.7-0.5-1.2-0.7s-1.2-0.3-2-0.3c-1.2,0-2.3,0.3-3,0.9
				c-0.8,0.6-1.2,1.6-1.3,2.8h-1c0.1-1.5,0.6-2.7,1.5-3.5s2.2-1.2,3.8-1.2c0.6,0,1.2,0.1,1.8,0.2c0.6,0.1,1.1,0.3,1.6,0.6
				s0.8,0.6,1.1,1.1c0.3,0.5,0.4,1.1,0.4,1.8L86.6,23.4L86.6,23.4z M85.6,18.1c-0.2,0.2-0.5,0.4-0.8,0.5c-0.4,0.1-0.8,0.2-1.2,0.3
				C83.1,19,82.7,19,82.1,19c-0.5,0-1,0.1-1.5,0.2c-1.2,0.1-2.2,0.5-2.8,0.9c-0.7,0.5-1,1.2-1,2.3c0,0.8,0.3,1.6,0.9,2.2
				s1.5,0.9,2.8,0.9c1.2,0,2.1-0.2,2.8-0.6c0.7-0.4,1.2-0.9,1.6-1.5s0.6-1.1,0.7-1.6s0.1-0.9,0.1-1L85.6,18.1L85.6,18.1z"/>
			<path class="st2" d="M91,15.1L91,15.1c0.2-0.5,0.4-0.9,0.8-1.3c0.3-0.4,0.7-0.7,1.2-1s1-0.5,1.6-0.7s1.2-0.2,1.8-0.2v1
				c-0.5-0.1-1.2,0-1.9,0.2c-0.7,0.2-1.4,0.6-2,1.2c-0.3,0.3-0.5,0.5-0.7,0.8s-0.3,0.5-0.5,0.8c-0.1,0.3-0.2,0.7-0.3,1
				c0,0.5,0,0.9,0,1.5V26h-1V12.1h1V15.1z"/>
		</g>
	</g>
</g>
<g id="Capa_2">
	<text transform="matrix(1 0 0 1 13.7994 27.0482)" class="st3 st4 st5">creating</text>
</g>
</svg>
