<?xml version="1.0" encoding="utf-8"?>
<!-- Generator: Adobe Illustrator 24.0.0, SVG Export Plug-In . SVG Version: 6.00 Build 0)  -->
<svg version="1.1" id="Capa_1" xmlns="http://www.w3.org/2000/svg" xmlns:xlink="http://www.w3.org/1999/xlink" x="0px" y="0px"
	 viewBox="0 0 1831 687" style="enable-background:new 0 0 1831 687;" xml:space="preserve">
<style type="text/css">
	.st0{fill:#FFFFFF;}
	.st1{fill:none;stroke:#EADE1B;stroke-width:6;stroke-miterlimit:10;}
</style>
<g>
	<path class="st0" d="M715.4,150.6l-15.6,83.7H486l1.6-9.4h12l36.7-206h-23.4l1.6-9.4h213.9l-6.8,82.1h-10.4
		C708,39,684.6,18.9,633.6,18.9L617.4,111c26.3,0,39.3-11,47.4-36.7h10.7l-16.2,93.5h-10.4c1.6-27.9-4.6-41.2-33.1-47.1l-18.5,104.2
		h8.8c62.3,0,79.2-35.4,99.3-74.3L715.4,150.6L715.4,150.6z"/>
	<path class="st0" d="M913.5,4.5h7.1c-1.9,12.3-9.7,62.6-10.1,79.2h-11c-8.1-40.9-36-67.8-72.7-67.8c-12.6,0-27.9,7.5-27.9,23.4
		c0,39.9,113.6,39.9,113.6,118.4c0,33.1-22.1,81.4-90.9,81.4c-27.2,0-41.5-7.5-60.7-20.4l-34.1,20.4h-9.4
		c3.2-22.7,9.4-70.7,9.7-84.7h9.4c11.4,36,42.5,75,83.7,75c15.2,0,36-6.8,36-26.9c0-42.8-114.9-37.6-114.9-119.4
		c0-49,36-78.5,83.7-78.5c14.3,0,37.3,6.5,52.2,17.5L913.5,4.5z"/>
	<path class="st0" d="M690.8,398.5l-16,86.2H454.6l1.7-9.7h12.4l37.7-212.2h-24l1.7-9.7h220.2l-7,84.5h-10.7
		c-3.3-54.1-27.4-74.8-79.9-74.8L590,357.7c27.1,0,40.4-11.4,48.8-37.8h11l-16.7,96.2h-10.7c1.7-28.7-4.7-42.4-34.1-48.4l-19,107.2
		h9c64.1,0,81.5-36.4,102.2-76.5L690.8,398.5L690.8,398.5L690.8,398.5z"/>
	<path class="st0" d="M894.8,248.1h7.3c-2,12.7-10,64.5-10.4,81.5h-11.3c-8.4-42.1-37.1-69.8-74.8-69.8c-13,0-28.7,7.7-28.7,24
		c0,41.1,116.9,41.1,116.9,122c0,34.1-22.7,83.8-93.5,83.8c-28.1,0-42.8-7.7-62.5-21l-35.1,21H693c3.3-23.4,9.7-72.8,10-87.2h9.7
		c11.7,37.1,43.8,77.2,86.2,77.2c15.7,0,37.1-7,37.1-27.7c0-44.1-118.3-38.7-118.3-122.9c0-50.5,37.1-80.8,86.2-80.8
		c14.7,0,38.4,6.7,53.8,18L894.8,248.1z"/>
	<path class="st0" d="M1150.5,253.2l-11.7,94.5h-10.4c-0.7-43.8-8-77.8-41.8-84.2L1048.9,475h33.7l-1.7,9.7H914.6l1.7-9.7h32.1
		l37.7-211.5h-2.7c-6.3,0-44.1,15-69.8,79.5h-10.4l19-89.9L1150.5,253.2L1150.5,253.2z"/>
	<path class="st0" d="M1396.4,344.6c0,73.5-55.2,143.9-145.9,143.9c-67.5,0-110.2-45.3-110.2-99.9c0-66.5,61.9-139.3,141.9-139.3
		C1357,249.3,1396.4,299.9,1396.4,344.6z M1300.1,302.9c6.6-40.7-2.6-45-15.9-45c-15.9,0-20.2,7.6-37.1,111.8
		c-6.3,38.7-11.6,67.5-11.6,87c0,15.9,3,23.2,15.6,23.2c13.9,0,21.5-5.3,27.8-44L1300.1,302.9z"/>
</g>
<line class="st1" x1="403.5" y1="643.5" x2="1427.5" y2="643.5"/>
</svg>
