<?xml version="1.0" encoding="utf-8"?>
<!-- Generator: Adobe Illustrator 28.2.0, SVG Export Plug-In . SVG Version: 6.00 Build 0)  -->
<svg version="1.1" id="Capa_1" xmlns="http://www.w3.org/2000/svg" xmlns:xlink="http://www.w3.org/1999/xlink" x="0px" y="0px"
	 viewBox="0 0 141.9 87.7" style="enable-background:new 0 0 141.9 87.7;" xml:space="preserve">
<style type="text/css">
	.st0{fill:#FFFFFF;}
	.st1{fill:none;stroke:#EADE1B;stroke-miterlimit:10;}
</style>
<g>
	<path class="st0" d="M43.2,21.7l-2.2,11.6H11.4l0.2-1.3h1.7l5.1-28.5h-3.2l0.2-1.3H45l-0.9,11.4h-1.4C42.2,6.3,38.9,3.5,31.9,3.5
		l-2.2,12.8c3.6,0,5.4-1.5,6.6-5.1h1.5l-2.2,13H34c0.2-3.9-0.6-5.7-4.6-6.5L26.9,32h1.2c8.6,0,11-4.9,13.8-10.3L43.2,21.7L43.2,21.7
		z"/>
	<path class="st0" d="M70.7,1.5h1c-0.3,1.7-1.3,8.7-1.4,11h-1.5c-1.1-5.7-5-9.4-10.1-9.4c-1.7,0-3.9,1-3.9,3.2
		c0,5.5,15.7,5.5,15.7,16.4c0,4.6-3.1,11.3-12.6,11.3c-3.8,0-5.7-1-8.4-2.8L44.8,34h-1.3c0.4-3.1,1.3-9.8,1.3-11.7h1.3
		c1.6,5,5.9,10.4,11.6,10.4c2.1,0,5-0.9,5-3.7c0-5.9-15.9-5.2-15.9-16.5c0-6.8,5-10.9,11.6-10.9c2,0,5.2,0.9,7.2,2.4L70.7,1.5z"/>
	<path class="st0" d="M39.8,56.1L37.6,68H7.1l0.2-1.3H9l5.2-29.4h-3.3l0.2-1.3h30.5l-1,11.7h-1.5c-0.5-7.5-3.8-10.4-11.1-10.4
		l-2.3,13.1c3.8,0,5.6-1.6,6.8-5.2h1.5l-2.3,13.3h-1.5c0.2-4-0.7-5.9-4.7-6.7L23,66.7h1.2c8.9,0,11.3-5,14.2-10.6L39.8,56.1
		L39.8,56.1L39.8,56.1z"/>
	<path class="st0" d="M68.1,35.3h1c-0.3,1.8-1.4,8.9-1.4,11.3h-1.6c-1.2-5.8-5.1-9.7-10.4-9.7c-1.8,0-4,1.1-4,3.3
		c0,5.7,16.2,5.7,16.2,16.9c0,4.7-3.1,11.6-13,11.6c-3.9,0-5.9-1.1-8.7-2.9l-4.9,2.9h-1.3c0.5-3.2,1.3-10.1,1.4-12.1h1.3
		c1.6,5.1,6.1,10.7,11.9,10.7c2.2,0,5.1-1,5.1-3.8c0-6.1-16.4-5.4-16.4-17c0-7,5.1-11.2,11.9-11.2c2,0,5.3,0.9,7.5,2.5L68.1,35.3z"
		/>
	<path class="st0" d="M103.5,36l-1.6,13.1h-1.4c-0.1-6.1-1.1-10.8-5.8-11.7l-5.2,29.3h4.7L93.9,68h-23l0.2-1.3h4.4l5.2-29.3h-0.4
		c-0.9,0-6.1,2.1-9.7,11h-1.4l2.6-12.5L103.5,36L103.5,36z"/>
	<path class="st0" d="M137.6,48.6c0,10.2-7.6,19.9-20.2,19.9c-9.4,0-15.3-6.3-15.3-13.8c0-9.2,8.6-19.3,19.7-19.3
		C132.1,35.4,137.6,42.4,137.6,48.6z M124.2,42.8c0.9-5.6-0.4-6.2-2.2-6.2c-2.2,0-2.8,1.1-5.1,15.5c-0.9,5.4-1.6,9.4-1.6,12.1
		c0,2.2,0.4,3.2,2.2,3.2c1.9,0,3-0.7,3.9-6.1L124.2,42.8z"/>
</g>
<line class="st1" x1="0" y1="86.8" x2="141.9" y2="86.8"/>
</svg>
