<?xml version="1.0" encoding="utf-8"?>
<!-- Generator: Adobe Illustrator 22.0.0, SVG Export Plug-In . SVG Version: 6.00 Build 0)  -->
<svg version="1.1" id="Capa_1" xmlns="http://www.w3.org/2000/svg" xmlns:xlink="http://www.w3.org/1999/xlink" x="0px" y="0px"
	 viewBox="0 0 888 612" style="enable-background:new 0 0 888 612;" xml:space="preserve">
<style type="text/css">
	.st0{fill:#FFFFFF;}
</style>
<g>
	<path class="st0" d="M245.9,217.6l-14.7,78.9H29.6l1.5-8.9h11.3L77,93.4H55l1.5-8.9h201.6l-6.4,77.4h-9.8
		c-3.1-49.6-25.1-68.5-73.1-68.5l-15.3,86.9c24.8,0,37-10.4,44.7-34.6h10.1L193,233.8h-9.8c1.5-26.3-4.3-38.9-31.2-44.4l-17.4,98.2
		h8.3c58.7,0,74.7-33.3,93.6-70.1H245.9z"/>
	<path class="st0" d="M432.7,79.9h6.7c-1.8,11.6-9.2,59.1-9.5,74.7h-10.4c-7.7-38.6-34-63.9-68.5-63.9c-11.9,0-26.3,7-26.3,22
		c0,37.6,107.1,37.6,107.1,111.7c0,31.2-20.8,76.8-85.7,76.8c-25.7,0-39.2-7-57.2-19.3l-32.1,19.3h-8.9c3.1-21.4,8.9-66.7,9.2-79.9
		h8.9c10.7,34,40.1,70.7,78.9,70.7c14.4,0,34-6.4,34-25.4c0-40.4-108.3-35.5-108.3-112.6c0-46.2,34-74,78.9-74
		c13.5,0,35.2,6.1,49.3,16.5L432.7,79.9z"/>
	<path class="st0" d="M222.7,451.4l-15.1,81.3H0l1.6-9.1h11.7l35.6-200H26.1l1.6-9.1h207.6l-6.6,79.7h-10.1
		c-3.2-51-25.8-70.6-75.3-70.6l-15.7,89.5c25.5,0,38.1-10.7,46-35.6H184l-15.8,90.7h-10.1c1.6-27.1-4.4-40-32.1-45.7l-18,101.1h8.5
		c60.5,0,76.9-34.3,96.4-72.1H222.7z"/>
	<path class="st0" d="M415,309.6h6.9c-1.9,12-9.4,60.8-9.8,76.9h-10.7c-7.9-39.7-35-65.8-70.6-65.8c-12.3,0-27.1,7.2-27.1,22.7
		c0,38.8,110.2,38.8,110.2,115c0,32.1-21.4,79.1-88.2,79.1c-26.5,0-40.3-7.2-58.9-19.8l-33.1,19.8h-9.1c3.1-22,9.1-68.7,9.5-82.2
		h9.1c11,35,41.3,72.8,81.3,72.8c14.8,0,35-6.6,35-26.1c0-41.6-111.5-36.5-111.5-115.9c0-47.6,35-76.2,81.3-76.2
		c13.9,0,36.2,6.3,50.7,17L415,309.6z"/>
	<path class="st0" d="M656.1,314.3l-11,89.1h-9.8c-0.6-41.3-7.6-73.4-39.4-79.4l-35.6,199.4h31.8l-1.6,9.1H433.8l1.6-9.1h30.2
		l35.6-199.4h-2.5c-6,0-41.6,14.2-65.8,75H423l18-84.7H656.1z"/>
	<path class="st0" d="M888,400.5c0,69.3-52.1,135.7-137.6,135.7c-63.6,0-103.9-42.7-103.9-94.2c0-62.7,58.3-131.3,133.8-131.3
		C850.9,310.7,888,358.4,888,400.5z M797.2,361.2c6.2-38.4-2.5-42.4-15-42.4c-15,0-19,7.2-34.9,105.4c-5.9,36.5-10.9,63.6-10.9,82.1
		c0,15,2.8,21.8,14.7,21.8c13.1,0,20.3-5,26.2-41.5L797.2,361.2z"/>
</g>
</svg>
