<?xml version="1.0" encoding="utf-8"?>
<!-- Generator: Adobe Illustrator 22.0.0, SVG Export Plug-In . SVG Version: 6.00 Build 0)  -->
<svg version="1.1" id="Capa_1" xmlns="http://www.w3.org/2000/svg" xmlns:xlink="http://www.w3.org/1999/xlink" x="0px" y="0px"
	 viewBox="0 0 86 23.2" style="enable-background:new 0 0 86 23.2;" xml:space="preserve">
<style type="text/css">
	.st0{fill:#FFFFFF;}
</style>
<g>
	<path class="st0" d="M1.9,6.6V5.4h0.8v1.1H1.9z M1.9,14.1V7.9h0.7v6.2H1.9z"/>
	<path class="st0" d="M4.7,14.1H4V7.9h0.7v0.9C5,8.5,5.3,8.2,5.6,8s0.7-0.3,1.1-0.3c0.4,0,0.8,0.1,1.1,0.2C8.1,8,8.4,8.2,8.5,8.5
		C8.7,8.8,8.8,9,8.8,9.2S8.9,9.8,8.9,10v4.1H8.2V10c0-0.6-0.1-1-0.4-1.3C7.5,8.4,7.1,8.3,6.6,8.3c-0.4,0-0.8,0.1-1.1,0.3
		C5.2,8.8,5,9.1,4.9,9.4c-0.1,0.3-0.2,0.5-0.2,0.7s0,0.4,0,0.7C4.7,10.8,4.7,14.1,4.7,14.1z"/>
	<path class="st0" d="M9.5,8.6V7.9h0.9v-1c0-0.5,0.1-0.9,0.3-1.2s0.5-0.4,1-0.4c0.1,0,0.2,0,0.4,0c0.1,0,0.2,0,0.2,0V6
		c-0.2,0-0.3,0-0.4,0c-0.3,0-0.5,0.1-0.6,0.3s-0.1,0.5-0.1,0.9V8h1.2v0.6h-1.2v5.6h-0.7V8.6C10.5,8.6,9.5,8.6,9.5,8.6z"/>
	<path class="st0" d="M12.6,11c0-1,0.3-1.7,0.8-2.4c0.5-0.6,1.2-0.9,2.1-0.9c0.9,0,1.7,0.3,2.1,0.9c0.5,0.6,0.7,1.4,0.7,2.4
		s-0.3,1.8-0.8,2.4s-1.2,0.9-2.1,0.9c-0.8,0-1.5-0.3-2.1-0.9C12.9,12.9,12.6,12,12.6,11z M15.5,8.4c-0.7,0-1.2,0.3-1.6,0.8
		c-0.4,0.5-0.5,1.1-0.5,1.9s0.2,1.4,0.6,1.9c0.4,0.5,0.9,0.7,1.6,0.7c0.7,0,1.2-0.3,1.6-0.8c0.4-0.5,0.5-1.1,0.5-1.9
		s-0.2-1.4-0.5-1.9C16.8,8.6,16.2,8.4,15.5,8.4z"/>
	<path class="st0" d="M27.3,12.1c-0.4,0.7-0.9,1.2-1.6,1.6s-1.5,0.6-2.3,0.6c-1.3,0-2.4-0.4-3.2-1.3s-1.3-2-1.3-3.2s0.4-2.3,1.3-3.2
		c0.9-0.9,1.9-1.3,3.2-1.3c1.2,0,2.1,0.4,2.9,1.1c0.8,0.7,1.2,1.6,1.2,2.7c0,0.9-0.3,1.7-0.9,2.4c-0.6,0.7-1.2,1.1-1.9,1.1
		c-0.2,0-0.5-0.1-0.6-0.2c-0.2-0.1-0.3-0.3-0.4-0.5c-0.2,0.2-0.4,0.3-0.7,0.5s-0.5,0.2-0.8,0.2c-0.5,0-0.9-0.2-1.2-0.5
		s-0.5-0.8-0.5-1.3c0-0.9,0.3-1.7,0.9-2.5c0.6-0.8,1.3-1.2,2.1-1.2c0.3,0,0.6,0.1,0.8,0.2s0.4,0.3,0.5,0.6L25,7.4h0.8L24.6,11
		c-0.1,0.3-0.1,0.5-0.1,0.6c0,0.2,0.1,0.3,0.3,0.3c0.5,0,0.9-0.3,1.3-0.9c0.4-0.6,0.6-1.3,0.6-2c0-0.9-0.3-1.7-1-2.3
		s-1.5-0.9-2.4-0.9c-1.1,0-2,0.4-2.7,1.2s-1.1,1.7-1.1,2.8s0.4,2,1.1,2.8c0.7,0.8,1.6,1.1,2.7,1.1c0.6,0,1.2-0.1,1.8-0.4
		s1-0.7,1.4-1.2L27.3,12.1L27.3,12.1z M24.4,8.6c0-0.2-0.1-0.4-0.2-0.6s-0.4-0.3-0.6-0.3c-0.6,0-1.1,0.3-1.5,1s-0.6,1.3-0.6,1.9
		c0,0.3,0.1,0.6,0.3,0.8c0.2,0.2,0.4,0.3,0.7,0.3c0.5,0,1-0.4,1.4-1.1C24.2,10,24.4,9.4,24.4,8.6z"/>
	<path class="st0" d="M28.8,11.1c0,0.7,0.2,1.3,0.6,1.8c0.4,0.5,0.9,0.7,1.5,0.7c0.5,0,0.9-0.1,1.2-0.4s0.6-0.6,0.7-1.1h0.8
		c-0.2,0.7-0.5,1.2-0.9,1.5c-0.4,0.4-1,0.6-1.8,0.6c-1,0-1.7-0.3-2.1-0.9c-0.5-0.6-0.7-1.4-0.7-2.4c0-0.9,0.3-1.7,0.8-2.4
		C29.4,8,30.1,7.7,31,7.7c0.9,0,1.5,0.3,2,0.9c0.5,0.6,0.7,1.4,0.7,2.6C33.7,11.2,28.8,11.2,28.8,11.1z M32.8,10.5
		c0-0.6-0.2-1.2-0.5-1.6s-0.8-0.6-1.5-0.6c-0.6,0-1.1,0.2-1.4,0.6c-0.4,0.4-0.6,0.9-0.6,1.6H32.8z"/>
	<path class="st0" d="M34.9,12.1c0.1,0.5,0.3,0.9,0.6,1.1s0.7,0.3,1.3,0.3c0.5,0,0.9-0.1,1.1-0.3c0.3-0.2,0.4-0.5,0.4-0.8
		c0-0.5-0.3-0.8-1-1c-0.6-0.2-1.3-0.3-1.9-0.5c-0.7-0.3-1-0.8-1-1.5c0-0.5,0.2-0.9,0.6-1.3c0.4-0.3,0.9-0.5,1.6-0.5
		c0.7,0,1.2,0.2,1.7,0.5S39,9,39,9.7h-0.7c-0.1-0.5-0.2-0.8-0.5-1s-0.7-0.3-1.1-0.3c-0.5,0-0.8,0.1-1,0.3s-0.4,0.5-0.4,0.8
		c0,0.5,0.3,0.8,1,1s1.3,0.4,2,0.6c0.7,0.3,1,0.8,1,1.5c0,0.6-0.2,1-0.7,1.3s-1.1,0.5-1.8,0.5s-1.3-0.2-1.7-0.6s-0.6-0.9-0.6-1.5
		h0.4V12.1z"/>
	<path class="st0" d="M40.5,11.1c0,0.7,0.2,1.3,0.6,1.8s0.9,0.7,1.5,0.7c0.5,0,0.9-0.1,1.2-0.4c0.3-0.3,0.6-0.6,0.7-1.1h0.8
		c-0.2,0.7-0.5,1.2-0.9,1.5c-0.4,0.4-1,0.6-1.8,0.6c-1,0-1.7-0.3-2.1-0.9C40,12.8,39.8,12,39.8,11c0-0.9,0.3-1.7,0.8-2.4
		c0.5-0.6,1.2-0.9,2.1-0.9s1.5,0.3,2,0.9c0.5,0.6,0.7,1.4,0.7,2.6C45.4,11.2,40.5,11.2,40.5,11.1z M44.5,10.5c0-0.6-0.2-1.2-0.5-1.6
		s-0.8-0.6-1.5-0.6c-0.6,0-1.1,0.2-1.4,0.6c-0.4,0.4-0.6,0.9-0.6,1.6H44.5z"/>
	<path class="st0" d="M46.7,12.1c0.1,0.5,0.3,0.9,0.6,1.1s0.7,0.3,1.3,0.3c0.5,0,0.9-0.1,1.1-0.3c0.3-0.2,0.4-0.5,0.4-0.8
		c0-0.5-0.3-0.8-1-1c-0.6-0.2-1.3-0.3-1.9-0.5c-0.7-0.3-1-0.8-1-1.5c0-0.5,0.2-0.9,0.6-1.3c0.4-0.3,0.9-0.5,1.6-0.5s1.2,0.2,1.7,0.5
		s0.7,0.8,0.7,1.5h-0.7c-0.1-0.5-0.2-0.8-0.5-1s-0.7-0.3-1.1-0.3c-0.5,0-0.8,0.1-1,0.3s-0.4,0.5-0.4,0.8c0,0.5,0.3,0.8,1,1
		s1.3,0.4,2,0.6c0.7,0.3,1,0.8,1,1.5c0,0.6-0.2,1-0.7,1.3s-1.1,0.5-1.8,0.5c-0.7,0-1.3-0.2-1.7-0.6c-0.4-0.4-0.6-0.9-0.6-1.5h0.4
		V12.1z"/>
	<path class="st0" d="M53.9,14.1c-0.1,0-0.3,0.1-0.4,0.1s-0.3,0-0.4,0c-0.4,0-0.6-0.1-0.8-0.3c-0.2-0.2-0.3-0.5-0.3-1V8.4h-0.9V7.8
		H52V6.1h0.7v1.7h1.2v0.6h-1.2v4.3c0,0.3,0,0.6,0.1,0.7s0.2,0.2,0.5,0.2c0.1,0,0.2,0,0.3,0c0.1,0,0.2,0,0.3-0.1V14.1z"/>
	<path class="st0" d="M54.2,11c0-1,0.3-1.7,0.8-2.4c0.5-0.6,1.2-0.9,2.1-0.9s1.7,0.3,2.1,0.9c0.5,0.6,0.7,1.4,0.7,2.4
		s-0.3,1.8-0.8,2.4s-1.2,0.9-2.1,0.9c-0.8,0-1.5-0.3-2.1-0.9C54.5,12.9,54.2,12,54.2,11z M57.1,8.4c-0.7,0-1.2,0.3-1.6,0.8
		c-0.4,0.4-0.5,1-0.5,1.8s0.2,1.4,0.6,1.9s0.9,0.7,1.6,0.7s1.2-0.3,1.6-0.8s0.5-1.1,0.5-1.9s-0.2-1.4-0.5-1.9
		C58.3,8.6,57.8,8.4,57.1,8.4z"/>
	<path class="st0" d="M61.2,14.1V13H62v1.1H61.2z"/>
	<path class="st0" d="M68.1,9.9c-0.1-0.5-0.3-0.8-0.7-1.1c-0.3-0.3-0.7-0.4-1.2-0.4c-0.7,0-1.2,0.3-1.6,0.8
		c-0.4,0.5-0.5,1.1-0.5,1.9s0.2,1.3,0.5,1.9c0.3,0.5,0.9,0.8,1.6,0.8c0.5,0,1-0.1,1.3-0.4s0.5-0.7,0.6-1.2h0.8
		c-0.1,0.7-0.4,1.3-0.9,1.7c-0.4,0.4-1,0.6-1.8,0.6c-1,0-1.7-0.3-2.1-0.9c-0.5-0.6-0.7-1.4-0.7-2.4c0-0.9,0.3-1.7,0.8-2.3
		c0.5-0.6,1.2-1,2.1-1c0.7,0,1.3,0.2,1.8,0.5c0.4,0.4,0.7,0.9,0.8,1.6h-0.8V9.9z"/>
	<path class="st0" d="M69.4,11c0-1,0.3-1.7,0.8-2.4c0.5-0.6,1.2-0.9,2.1-0.9s1.7,0.3,2.1,0.9c0.5,0.6,0.7,1.4,0.7,2.4
		s-0.3,1.8-0.8,2.4s-1.2,0.9-2.1,0.9c-0.8,0-1.5-0.3-2.1-0.9C69.7,12.9,69.4,12,69.4,11z M72.3,8.4c-0.7,0-1.2,0.3-1.6,0.8
		s-0.5,1.1-0.5,1.9s0.2,1.4,0.6,1.9s0.9,0.7,1.6,0.7s1.2-0.3,1.6-0.8s0.5-1.1,0.5-1.9S74.3,9.7,74,9.2C73.6,8.6,73,8.4,72.3,8.4z"/>
	<path class="st0" d="M76.7,14.1H76V7.9h0.7v0.9c0.2-0.4,0.5-0.6,0.8-0.8s0.7-0.3,1.1-0.3c0.5,0,0.9,0.1,1.2,0.3s0.5,0.5,0.6,0.9
		c0.4-0.8,1.1-1.2,2-1.2c0.8,0,1.3,0.2,1.5,0.7s0.4,1,0.4,1.8v3.9h-0.7V9.8c0-0.5-0.1-0.8-0.3-1.1c-0.2-0.2-0.5-0.4-1-0.4
		c-0.3,0-0.5,0.1-0.8,0.2c-0.2,0.1-0.4,0.3-0.6,0.5s-0.3,0.5-0.3,0.8c-0.1,0.3-0.1,0.6-0.1,0.9V14h-0.7V9.7c0-0.5-0.1-0.8-0.3-1.1
		c-0.2-0.2-0.5-0.4-1-0.4c-0.3,0-0.5,0.1-0.8,0.2c-0.2,0.1-0.4,0.3-0.6,0.5s-0.3,0.5-0.3,0.8c-0.1,0.3-0.1,0.6-0.1,0.9
		C76.7,10.6,76.7,14.1,76.7,14.1z"/>
</g>
</svg>
